<svg width="20" height="20" viewBox="0 0 20 20" fill="none" xmlns="http://www.w3.org/2000/svg">
<path d="M3 5C3 3.89543 3.89543 3 5 3H7.5C8.60457 3 9.5 3.89543 9.5 5V7.5C9.5 8.60457 8.60457 9.5 7.5 9.5H5C3.89543 9.5 3 8.60457 3 7.5V5ZM5 4C4.44772 4 4 4.44772 4 5V7.5C4 8.05228 4.44772 8.5 5 8.5H7.5C8.05228 8.5 8.5 8.05228 8.5 7.5V5C8.5 4.44772 8.05228 4 7.5 4H5Z" fill="black"/>
<path d="M10.5 5C10.5 3.89543 11.3954 3 12.5 3H15C16.1046 3 17 3.89543 17 5V7.5C17 8.60457 16.1046 9.5 15 9.5H12.5C11.3954 9.5 10.5 8.60457 10.5 7.5V5ZM12.5 4C11.9477 4 11.5 4.44772 11.5 5V7.5C11.5 8.05228 11.9477 8.5 12.5 8.5H15C15.5523 8.5 16 8.05228 16 7.5V5C16 4.44772 15.5523 4 15 4H12.5Z" fill="black"/>
<path d="M12.5 10.5C11.3954 10.5 10.5 11.3954 10.5 12.5V15C10.5 16.1046 11.3954 17 12.5 17H15C16.1046 17 17 16.1046 17 15V12.5C17 11.3954 16.1046 10.5 15 10.5H12.5ZM15 11.5C15.5523 11.5 16 11.9477 16 12.5V15C16 15.5523 15.5523 16 15 16H12.5C11.9477 16 11.5 15.5523 11.5 15V12.5C11.5 11.9477 11.9477 11.5 12.5 11.5H15Z" fill="black"/>
<path d="M3 12.5C3 11.3954 3.89543 10.5 5 10.5H7.5C8.60457 10.5 9.5 11.3954 9.5 12.5V15C9.5 16.1046 8.60457 17 7.5 17H5C3.89543 17 3 16.1046 3 15V12.5ZM5 11.5C4.44772 11.5 4 11.9477 4 12.5V15C4 15.5523 4.44772 16 5 16H7.5C8.05228 16 8.5 15.5523 8.5 15V12.5C8.5 11.9477 8.05228 11.5 7.5 11.5H5Z" fill="black"/>
</svg>
